<svg xmlns="http://www.w3.org/2000/svg" width="30.556" height="25" viewBox="0 0 30.556 25">
  <path id="Path_2880" data-name="Path 2880" d="M-1767.833,39A4.171,4.171,0,0,1-1772,34.834V18.167A4.171,4.171,0,0,1-1767.833,14h22.222a4.171,4.171,0,0,1,4.167,4.126c0,.022,0,.044,0,.067v16.64A4.171,4.171,0,0,1-1745.611,39Zm-1.388-4.167a1.39,1.39,0,0,0,1.388,1.388h22.222a1.39,1.39,0,0,0,1.389-1.388v-14l-11.7,8.193a1.4,1.4,0,0,1-.8.251,1.392,1.392,0,0,1-.8-.251l-11.7-8.192Zm12.5-8.64,12.354-8.648a1.391,1.391,0,0,0-1.243-.768h-22.222a1.39,1.39,0,0,0-1.242.768Z" transform="translate(1772 -14)" fill="#444240"/>
</svg>
