<svg xmlns="http://www.w3.org/2000/svg" width="34.366" height="25" viewBox="0 0 34.366 25">
  <path id="Path_2884" data-name="Path 2884" d="M-1767.5,38.292l-.008,0a5.441,5.441,0,0,1-3.777-3.738c-.013-.046-.024-.092-.033-.138a43.116,43.116,0,0,1-.681-7.887,43.171,43.171,0,0,1,.681-7.828q.009-.046.021-.093a5.426,5.426,0,0,1,3.777-3.894l.02-.005c2.57-.687,11.656-.707,12.684-.707s10.1.018,12.654.642l.05.014a5.425,5.425,0,0,1,3.777,3.893c.008.031.015.062.02.094a43.05,43.05,0,0,1,.681,7.887,43,43,0,0,1-.681,7.77c-.005.031-.012.063-.02.094a5.427,5.427,0,0,1-3.777,3.893l-.02.005c-2.57.687-11.656.708-12.684.708S-1764.931,38.98-1767.5,38.292Zm.751-20.821a2.553,2.553,0,0,0-1.759,1.789,40.179,40.179,0,0,0-.626,7.262v.015a40.137,40.137,0,0,0,.622,7.292,2.564,2.564,0,0,0,1.757,1.7c1.68.446,8.058.608,11.939.608s10.245-.162,11.934-.607a2.555,2.555,0,0,0,1.759-1.789,40.215,40.215,0,0,0,.626-7.206v-.015a40.245,40.245,0,0,0-.626-7.316,2.557,2.557,0,0,0-1.744-1.785c-1.924-.454-9.268-.554-11.948-.554C-1758.693,16.864-1765.062,17.025-1766.75,17.471Zm7.991,14.978a1.433,1.433,0,0,1-.711-1.238V21.847a1.432,1.432,0,0,1,.711-1.238,1.433,1.433,0,0,1,1.428-.007l8.234,4.682a1.431,1.431,0,0,1,.723,1.245,1.432,1.432,0,0,1-.723,1.245l-8.234,4.682a1.433,1.433,0,0,1-.708.187A1.437,1.437,0,0,1-1758.759,32.449Zm2.152-3.7,3.9-2.221-3.9-2.221Z" transform="translate(1772 -14)" fill="#444240"/>
</svg>
